<?xml version="1.0" encoding="UTF-8"?>
<svg id="main" xmlns="http://www.w3.org/2000/svg" viewBox="0 0 300 100">
  <defs>
    <style>
      .cls-1 {
        fill: #fff;
      }
    </style>
  </defs>
  <path class="cls-1" d="m52.98,16.44H17.92c-8.85,0-16.03,7.18-16.03,16.03v35.06c0,8.85,7.18,16.03,16.03,16.03h35.06c8.86,0,16.03-7.18,16.03-16.03v-35.06c0-8.86-7.18-16.03-16.03-16.03Zm-24.26,46.25c0,.32-.05.64-.08,1.08-.34-.18-.55-.27-.75-.4-2.4-1.57-4.8-3.17-7.21-4.72-.52-.34-.61-.75-.61-1.3.01-5.29-.02-10.59.02-15.88.01-1.52-.18-2.96-.66-4.4-.75-2.25-1.39-4.53-2.08-6.8.34.07.55.23.73.41,2.68,2.6,5.34,5.21,8.04,7.8.48.46.69.92.69,1.59-.03,4.62.02,9.24-.04,13.86-.01.95.2,1.59,1.1,1.93.7.26.89.77.87,1.51-.05,1.77,0,3.55-.01,5.32Zm23.1-26.73c-.74,2.14-1.04,4.29-1,6.56.09,4.9.01,9.8.05,14.69,0,.77-.25,1.21-.89,1.62-3.47,2.24-6.9,4.54-10.36,6.79-.49.32-.69.67-.68,1.26.04,2.17.03,4.35,0,6.52,0,.33-.1.79-.32.97-1,.8-2.06,1.53-3.1,2.28-.9-.62-1.8-1.25-2.7-1.87-.03-.02-.05-.04-.07-.05-.6-.29-.76-.76-.76-1.41.02-14.33,0-28.66.04-42.98,0-.45.25-1.01.58-1.33,1.85-1.79,3.75-3.52,5.64-5.26.16-.15.37-.26.74-.5v35.06c1.6-.96,3.03-1.85,4.49-2.68.53-.3.69-.65.68-1.24-.02-4.78,0-9.55-.02-14.33,0-.58.24-1.14.66-1.54,1.75-1.66,3.46-3.36,5.19-5.04,1.11-1.08,2.23-2.16,3.35-3.24.12.07.1.06.22.13-.57,1.87-1.08,3.75-1.72,5.59Z"/>
  <g>
    <path class="cls-1" d="m121.84,60.05v8.24h-31.65V24.94h31.34v8.24h-22.73v9.1h21.18v8.18h-21.18v9.6h23.04Z"/>
    <path class="cls-1" d="m148.6,68.29l-6.69-9.23-6.75,9.23h-9.23l11.33-15.79-10.9-15.17h9.29l6.26,8.67,6.26-8.67h9.23l-10.84,15.17,11.33,15.79h-9.29Z"/>
    <path class="cls-1" d="m178.7,36.52c2.35,0,4.52.41,6.5,1.24,1.98.83,3.71,1.97,5.17,3.44,1.47,1.47,2.6,3.19,3.41,5.17.81,1.98,1.21,4.13,1.21,6.44s-.4,4.46-1.21,6.44-1.89,3.71-3.25,5.17c-1.36,1.47-2.95,2.61-4.77,3.44-1.82.83-3.76,1.24-5.82,1.24-2.27,0-4.25-.4-5.95-1.21-1.69-.81-3.08-1.93-4.15-3.38v16.17h-8.05v-27.44c0-2.56.42-4.87,1.27-6.94.85-2.06,2.03-3.82,3.56-5.26,1.53-1.44,3.32-2.56,5.39-3.34,2.06-.78,4.29-1.18,6.69-1.18Zm-.31,24.96c1.24,0,2.37-.21,3.41-.62,1.03-.41,1.93-1,2.69-1.77s1.36-1.68,1.8-2.76c.43-1.07.65-2.25.65-3.53s-.22-2.51-.65-3.56-1.03-1.96-1.8-2.73c-.76-.76-1.66-1.35-2.69-1.77-1.03-.41-2.17-.62-3.41-.62s-2.37.21-3.41.62c-1.03.41-1.93,1-2.69,1.77s-1.36,1.67-1.8,2.73c-.43,1.05-.65,2.24-.65,3.56s.22,2.46.65,3.53c.43,1.07,1.03,1.99,1.8,2.76.76.76,1.66,1.35,2.69,1.77,1.03.41,2.17.62,3.41.62Z"/>
    <path class="cls-1" d="m228.13,37.32l-15.48,43.36h-9.17l5.14-13.44-12.7-29.92h8.8l8.05,20.69,6.81-20.69h8.55Z"/>
    <path class="cls-1" d="m273.34,62.28h-17.22l-2.6,6.01h-9.35l20.44-43.36h.31l20.38,43.36h-9.35l-2.6-6.01Zm-3.16-7.37l-5.45-12.7-5.45,12.7h10.9Z"/>
    <path class="cls-1" d="m298.11,24.94v43.36h-8.61V24.94h8.61Z"/>
  </g>
</svg>