<?xml version="1.0" encoding="UTF-8"?>
<svg id="icon" xmlns="http://www.w3.org/2000/svg" viewBox="0 0 300 100">
  <defs>
    <style>
      .cls-1 {
        fill: #fff;
      }

      .cls-2 {
        fill: #ff0049;
      }
    </style>
  </defs>
  <g>
    <path d="m4.74,47.66c.45-.48,1.01-.73,1.68-.73s1.32.17,1.97.5c.65.33,1.14.75,1.47,1.25.33.5.33,1.01,0,1.52-.7,1.09-1.13,1.98-1.31,2.67-.18.7-.27,1.45-.27,2.27,0,1.24.34,2.35,1.02,3.33.68.98,1.72,1.75,3.13,2.31,1.41.56,3.2.84,5.37.84,1.96,0,3.6-.2,4.92-.59,1.31-.39,2.3-.87,2.97-1.43.66-.56,1-1.1,1-1.61,0-.39-.27-.71-.82-.95-.54-.24-1.27-.45-2.18-.61-.91-.17-1.89-.37-2.95-.61-1.06-.21-1.99-.53-2.79-.95-.8-.42-1.45-.94-1.95-1.54-.5-.6-.88-1.28-1.16-2.02-.27-.74-.41-1.55-.41-2.43,0-1.18.24-2.34.73-3.49.48-1.15,1.16-2.2,2.02-3.15.86-.95,1.86-1.71,2.99-2.27,1.13-.56,2.33-.84,3.6-.84.97,0,1.96.16,2.99.48s1.93.73,2.72,1.25c.79.51,1.31,1.09,1.59,1.72.15.36.17.81.07,1.34-.11.53-.31,1.05-.61,1.56-.3.51-.67.95-1.11,1.29-.44.35-.9.52-1.38.52-.36,0-.74-.14-1.13-.41-.48-.39-1.08-.72-1.79-.98-.71-.26-1.43-.38-2.15-.38-.39,0-.79.08-1.2.25-.41.17-.76.39-1.04.66-.29.27-.43.61-.43,1,0,.51.14.94.43,1.27.29.33.77.62,1.45.86.68.24,1.56.45,2.65.63,1.09.15,2.09.36,2.99.63s1.68.67,2.33,1.18c.65.51,1.16,1.22,1.52,2.11.36.89.54,2.02.54,3.38,0,2.51-.66,4.64-1.97,6.39-1.31,1.75-3.14,3.1-5.46,4.03-2.33.94-5.02,1.41-8.07,1.41-3.23,0-5.95-.54-8.14-1.61-2.19-1.07-3.85-2.52-4.99-4.35-1.13-1.83-1.7-3.86-1.7-6.1,0-1,.1-2.06.29-3.2.2-1.13.51-2.26.93-3.38.42-1.12.97-2.13,1.63-3.04Zm9.79,31.74c-1.18.27-2.12.1-2.81-.52-.7-.62-1.04-1.55-1.04-2.79,0-.88.32-1.51.97-1.9.65-.39,1.43-.71,2.33-.95,1.18-.33,2.36-.54,3.54-.61,1.18-.08,2.15-.1,2.9-.07.85,0,1.52.21,2.02.63.5.42.84.96,1.02,1.61s.2,1.3.05,1.95c-.15.65-.48,1.19-1,1.61-.51.42-1.18.63-1.99.63s-1.82.01-2.92.05c-1.1.03-2.12.15-3.06.36Z"/>
    <path d="m198.19,30.81c-.03.65-.3,1.15-.81,1.52-1.51,1.12-3.24,2.18-5.17,3.17-1.93.99-3.99,1.93-6.16,2.81,1.3,2.39,2.23,4.62,2.79,6.69.55,2.07.84,3.94.84,5.6,0,2.72-.52,4.96-1.54,6.71-1.03,1.76-2.4,3.06-4.11,3.92-1.71.86-3.57,1.29-5.6,1.29h-79.98c-1.33,0-2.47-.29-3.42-.88-.96-.59-1.73-1.35-2.34-2.27-.12-.18-.23-.37-.33-.55-.39.69-.84,1.3-1.34,1.82-1.22,1.26-2.71,1.88-4.49,1.88-1.57,0-2.95-.5-4.15-1.49-1.2-1-2-2.27-2.42-3.81-.43,1.6-1.18,2.9-2.27,3.9-1.09.99-2.39,1.5-3.9,1.5-1.39,0-2.63-.48-3.7-1.43-1.08-.95-1.83-2.11-2.25-3.47-.66,1.57-1.57,2.76-2.72,3.58-1.15.81-2.54,1.22-4.17,1.22s-3.08-.42-4.24-1.27c-1.16-.85-2.07-2.03-2.7-3.54-.42.97-.98,1.81-1.66,2.54-.68.72-1.46,1.28-2.35,1.68-.89.39-1.86.59-2.92.59-2.36,0-4.26-.45-5.69-1.33-1.44-.89-2.53-2.12-3.26-3.67-.74-1.56-1.24-3.36-1.5-5.4-.26-2.04-.39-4.23-.41-6.57-.01-2.34-.01-4.74,0-7.18.02-2.45-.08-4.84-.29-7.17-.13-1.27.16-2.18.84-2.72.68-.54,1.59-.82,2.74-.82,1.03,0,1.79.28,2.27.84.48.56.76,1.28.82,2.15.15,1.21.23,2.64.23,4.28s0,3.37-.03,5.17c-.01,1.79.02,3.56.09,5.28.08,1.72.25,3.29.52,4.69.27,1.4.7,2.53,1.29,3.36.59.83,1.38,1.25,2.38,1.25.6,0,1.17-.11,1.7-.34.53-.23.99-.66,1.38-1.29.4-.64.68-1.57.86-2.81-.03-1.18.01-2.16.14-2.95.12-.79.43-1.37.93-1.77.5-.39,1.28-.59,2.34-.59,1.18,0,2.04.22,2.58.65.55.44.82.93.82,1.47,0,.57-.04,1.04-.11,1.39s-.14.69-.2,1.04c-.06.35-.09.78-.09,1.29,0,.76.14,1.43.43,2.02.28.59.69,1.05,1.22,1.38.53.33,1.16.5,1.88.5.84,0,1.54-.14,2.08-.43.54-.28.98-.68,1.32-1.18.33-.5.57-1.09.72-1.77s.24-1.41.27-2.2c0-1.06.22-1.81.66-2.24.43-.44,1.2-.66,2.29-.66,1.03,0,1.8.24,2.31.71.52.47.71,1.1.59,1.88-.18,1.18-.15,2.17.09,2.99.24.81.6,1.43,1.08,1.83.48.41,1.03.62,1.64.62.96,0,1.71-.33,2.22-.98.52-.65.79-1.5.82-2.56,0-.42,0-.85-.03-1.29-.01-.44,0-.87.03-1.29.06-.82.31-1.46.77-1.93.45-.47,1.21-.71,2.27-.71.97,0,1.73.25,2.27.75.55.5.74,1.2.59,2.11-.12.88-.18,1.67-.16,2.4.01.72.11,1.36.29,1.91.18.54.47.95.86,1.22.4.27.93.41,1.59.41.72,0,1.32-.29,1.79-.86.47-.57.82-1.4,1.06-2.47.24-1.08.36-2.32.36-3.74,0-.7.28-1.24.82-1.64.54-.39,1.28-.59,2.22-.59.79,0,1.44.22,1.97.65.53.44.81,1.11.84,2.02.01,1.42-.04,2.76-.18,4.02.24.69.63,1.3,1.16,1.82.8.79,1.76,1.18,2.88,1.18h79.98c1.54-.03,2.71-.52,3.49-1.47.79-.96,1.18-2.12,1.18-3.51,0-.76-.11-1.65-.32-2.68-.21-1.03-.58-2.22-1.11-3.56-.53-1.35-1.29-2.82-2.29-4.42-.39-.7-.57-1.44-.52-2.22.05-.79.28-1.52.71-2.2.42-.68.98-1.17,1.67-1.47,1.51-.64,2.81-1.2,3.9-1.7,1.08-.5,2.08-.97,2.97-1.4.89-.44,1.76-.91,2.59-1.41.83-.5,1.73-1.06,2.7-1.7.52-.3.99-.45,1.45-.45.63,0,1.22.23,1.74.68.53.45.93,1.01,1.22,1.68.29.66.42,1.32.38,1.97Z"/>
    <path d="m56.86,69.31c-.31-.59-.76-1.08-1.32-1.47-.55-.4-1.23-.59-2.01-.59-.69,0-1.36.35-2,1.05-.64.69-.95,1.61-.95,2.76,0,.54.1,1.09.3,1.63.2.55.5,1.01.93,1.39.42.38.96.57,1.63.57,1.03,0,1.93-.3,2.72-.91.78-.6,1.18-1.5,1.18-2.68,0-.57-.16-1.16-.48-1.74Z"/>
    <path d="m208.4,30.15c0-.78-.25-1.49-.74-2.1-.5-.62-1.4-.93-2.7-.93-.99,0-1.86.21-2.58.64-.72.42-1.09,1.1-1.09,2.04s-.03,2.14-.07,3.7-.11,3.28-.18,5.16c-.08,1.89-.16,3.85-.27,5.9-.11,2.03-.19,4.02-.25,5.96-.06,1.94-.13,3.7-.18,5.28-.06,1.59-.09,2.9-.09,3.92,0,.88.23,1.54.68,1.97.45.44.98.72,1.57.84.59.12,1.06.18,1.43.18.93,0,1.64-.19,2.13-.57.48-.38.83-.82,1.05-1.33.21-.52.31-.97.31-1.36.15-1.57.23-3.32.25-5.26.01-1.93.08-4.21.2-6.84.09-1.96.18-3.99.27-6.08.09-2.08.16-4.09.23-6.03.06-1.93.08-3.63.04-5.08Z"/>
    <path d="m209.71,74.5c-.09.42-.26.64-.5.64-1.57,0-3.16.11-4.76.34-1.61.23-3.19.58-4.76,1.06-.3.09-.55-.04-.75-.38s-.33-.78-.41-1.29c-.08-.52-.06-1,.05-1.45.1-.45.35-.74.74-.86.52-.16,1.05-.31,1.57-.44-.19-.16-.35-.35-.5-.54-.54-.71-.8-1.47-.8-2.29,0-1.06.43-2.04,1.3-2.95s2.03-1.36,3.51-1.36c.78,0,1.52.14,2.2.43.68.29,1.23.71,1.66,1.25.27.33.33.75.18,1.25-.15.5-.4.93-.77,1.31-.36.38-.71.57-1.05.57-.21,0-.39-.08-.54-.23-.18-.21-.4-.36-.65-.45-.26-.09-.54-.13-.84-.13-.45,0-.84.11-1.14.34-.3.23-.45.47-.45.75,0,.39.41.73,1.25,1.01.35.13.81.19,1.38.21,1.01-.11,2.02-.17,3.04-.19.33,0,.59.2.77.59.18.39.3.85.34,1.38.04.53.03,1.01-.07,1.43Z"/>
  </g>
  <g>
    <rect class="cls-2" x="230.99" y="16.44" width="67.12" height="67.12" rx="16.03" ry="16.03"/>
    <path class="cls-1" d="m279.07,33.47c-1.73,1.68-3.44,3.37-5.19,5.04-.42.4-.66.96-.66,1.54.02,4.78,0,9.55.02,14.33,0,.59-.16.95-.68,1.24-1.46.83-2.89,1.71-4.49,2.68V23.24c-.37.25-.58.35-.74.5-1.89,1.74-3.79,3.48-5.64,5.26-.32.31-.58.88-.58,1.33-.03,14.33-.02,28.66-.04,42.98,0,.65.17,1.12.76,1.41.03.01.05.04.07.05.9.62,1.8,1.25,2.7,1.87,1.04-.75,2.1-1.47,3.1-2.28.23-.18.32-.64.32-.97.02-2.17.03-4.35,0-6.52-.01-.59.19-.94.68-1.26,3.46-2.25,6.89-4.55,10.36-6.79.64-.41.9-.85.89-1.62-.03-4.9.04-9.8-.05-14.69-.04-2.27.26-4.43,1-6.56.64-1.84,1.15-3.73,1.72-5.59l-.22-.13c-1.12,1.08-2.23,2.16-3.35,3.24Zm-21.25,29.22c0-1.77-.04-3.55.01-5.32.02-.74-.16-1.25-.87-1.51-.91-.34-1.11-.98-1.1-1.93.05-4.62,0-9.24.04-13.86,0-.67-.21-1.13-.69-1.59-2.69-2.58-5.36-5.2-8.04-7.8-.18-.18-.39-.34-.73-.41.69,2.27,1.33,4.55,2.08,6.8.48,1.44.67,2.89.66,4.4-.04,5.29,0,10.59-.02,15.88,0,.55.08.97.61,1.3,2.42,1.55,4.81,3.15,7.21,4.72.19.13.41.22.75.4.03-.44.08-.76.08-1.08Z"/>
  </g>
</svg>