<?xml version="1.0" encoding="UTF-8"?>
<svg id="main" xmlns="http://www.w3.org/2000/svg" viewBox="0 0 300 300">
  <defs>
    <style>
      .cls-1 {
        fill: #fff;
      }

      .cls-2 {
        fill: #ff0049;
      }
    </style>
  </defs>
  <path class="cls-2" d="m298.25,72.57v154.87c0,39.11-31.7,70.82-70.82,70.82H72.57c-39.11,0-70.82-31.71-70.82-70.82V72.57C1.75,33.44,33.46,1.75,72.57,1.75h154.87c39.12,0,70.82,31.7,70.82,70.82Z"/>
  <path class="cls-1" d="m214.14,76.98c-7.64,7.42-15.21,14.91-22.92,22.25-1.86,1.77-2.92,4.23-2.91,6.8.09,21.1-.01,42.2.09,63.29.01,2.62-.69,4.18-3.02,5.5-6.45,3.65-12.75,7.58-19.84,11.83V31.8c-1.62,1.09-2.54,1.55-3.27,2.23-8.34,7.71-16.74,15.35-24.9,23.26-1.43,1.39-2.55,3.88-2.55,5.87-.13,63.29-.1,126.59-.17,189.88,0,2.89.74,4.97,3.37,6.24.12.06.22.16.33.24,3.97,2.75,7.94,5.5,11.92,8.25,4.59-3.32,9.28-6.51,13.69-10.06,1-.8,1.4-2.82,1.42-4.28.11-9.6.13-19.21-.04-28.8-.05-2.63.82-4.16,3.01-5.58,15.29-9.95,30.46-20.1,45.78-30,2.81-1.82,3.96-3.77,3.93-7.16-.15-21.64.19-43.28-.21-64.91-.18-10.02,1.17-19.55,4.43-28.99,2.82-8.14,5.09-16.46,7.6-24.7l-.96-.59c-4.93,4.77-9.87,9.53-14.78,14.31Zm-93.89,129.06c.02-7.84-.19-15.68.05-23.52.1-3.27-.72-5.51-3.83-6.68-4-1.5-4.92-4.33-4.87-8.51.23-20.41.04-40.82.16-61.23.02-2.98-.91-5.01-3.03-7.04-11.9-11.41-23.67-22.95-35.5-34.44-.81-.79-1.71-1.49-3.22-1.81,3.04,10.02,5.87,20.1,9.19,30.02,2.14,6.37,2.97,12.75,2.92,19.45-.17,23.38-.03,46.77-.08,70.16,0,2.44.37,4.28,2.68,5.76,10.69,6.86,21.25,13.9,31.87,20.86.86.56,1.81.98,3.3,1.77.15-1.95.35-3.37.35-4.79Z"/>
</svg>