<?xml version="1.0" encoding="UTF-8"?>
<svg id="main" xmlns="http://www.w3.org/2000/svg" viewBox="0 0 300 100">
  <defs>
    <style>
      .cls-1 {
        fill: #fff;
      }

      .cls-2 {
        fill: #ff0049;
      }
    </style>
  </defs>
  <g>
    <rect class="cls-2" x="1.89" y="16.44" width="67.12" height="67.12" rx="16.03" ry="16.03"/>
    <path class="cls-1" d="m49.97,33.47c-1.73,1.68-3.44,3.37-5.19,5.04-.42.4-.66.96-.66,1.54.02,4.78,0,9.55.02,14.33,0,.59-.16.95-.68,1.24-1.46.83-2.89,1.71-4.49,2.68V23.24c-.37.25-.58.35-.74.5-1.89,1.74-3.79,3.48-5.64,5.26-.32.31-.58.88-.58,1.33-.03,14.33-.02,28.66-.04,42.98,0,.65.17,1.12.76,1.41.03.01.05.04.07.05.9.62,1.8,1.25,2.7,1.87,1.04-.75,2.1-1.47,3.1-2.28.23-.18.32-.64.32-.97.02-2.17.03-4.35,0-6.52-.01-.59.19-.94.68-1.26,3.46-2.25,6.89-4.55,10.36-6.79.64-.41.9-.85.89-1.62-.03-4.9.04-9.8-.05-14.69-.04-2.27.26-4.43,1-6.56.64-1.84,1.15-3.73,1.72-5.59l-.22-.13c-1.12,1.08-2.23,2.16-3.35,3.24Zm-21.25,29.22c0-1.77-.04-3.55.01-5.32.02-.74-.16-1.25-.87-1.51-.91-.34-1.11-.98-1.1-1.93.05-4.62,0-9.24.04-13.86,0-.67-.21-1.13-.69-1.59-2.69-2.58-5.36-5.2-8.04-7.8-.18-.18-.39-.34-.73-.41.69,2.27,1.33,4.55,2.08,6.8.48,1.44.67,2.89.66,4.4-.04,5.29,0,10.59-.02,15.88,0,.55.08.97.61,1.3,2.42,1.55,4.81,3.15,7.21,4.72.19.13.41.22.75.4.03-.44.08-.76.08-1.08Z"/>
  </g>
  <g>
    <path class="cls-1" d="m121.84,60.05v8.24h-31.65V24.94h31.34v8.24h-22.73v9.1h21.18v8.18h-21.18v9.6h23.04Z"/>
    <path class="cls-1" d="m148.6,68.29l-6.69-9.23-6.75,9.23h-9.23l11.33-15.79-10.9-15.17h9.29l6.26,8.67,6.26-8.67h9.23l-10.84,15.17,11.33,15.79h-9.29Z"/>
    <path class="cls-1" d="m178.7,36.52c2.35,0,4.52.41,6.5,1.24,1.98.83,3.71,1.97,5.17,3.44,1.47,1.47,2.6,3.19,3.41,5.17.81,1.98,1.21,4.13,1.21,6.44s-.4,4.46-1.21,6.44-1.89,3.71-3.25,5.17c-1.36,1.47-2.95,2.61-4.77,3.44-1.82.83-3.76,1.24-5.82,1.24-2.27,0-4.25-.4-5.95-1.21-1.69-.81-3.08-1.93-4.15-3.38v16.17h-8.05v-27.44c0-2.56.42-4.87,1.27-6.94.85-2.06,2.03-3.82,3.56-5.26,1.53-1.44,3.32-2.56,5.39-3.34,2.06-.78,4.29-1.18,6.69-1.18Zm-.31,24.96c1.24,0,2.37-.21,3.41-.62,1.03-.41,1.93-1,2.69-1.77s1.36-1.68,1.8-2.76c.43-1.07.65-2.25.65-3.53s-.22-2.51-.65-3.56-1.03-1.96-1.8-2.73c-.76-.76-1.66-1.35-2.69-1.77-1.03-.41-2.17-.62-3.41-.62s-2.37.21-3.41.62c-1.03.41-1.93,1-2.69,1.77s-1.36,1.67-1.8,2.73-.65,2.24-.65,3.56.22,2.46.65,3.53c.43,1.07,1.03,1.99,1.8,2.76.76.76,1.66,1.35,2.69,1.77,1.03.41,2.17.62,3.41.62Z"/>
    <path class="cls-1" d="m228.13,37.32l-15.48,43.36h-9.17l5.14-13.44-12.7-29.92h8.8l8.05,20.69,6.81-20.69h8.55Z"/>
    <path class="cls-1" d="m273.34,62.28h-17.22l-2.6,6.01h-9.35l20.44-43.36h.31l20.38,43.36h-9.35l-2.6-6.01Zm-3.16-7.37l-5.45-12.7-5.45,12.7h10.9Z"/>
    <path class="cls-1" d="m298.11,24.94v43.36h-8.61V24.94h8.61Z"/>
  </g>
</svg>